:FULLY-SPECIFIED
:FORCE-ALL-JOINTS-BE-3DOF
:DEGREES
1
root 6.24314 16.836 -28.1378 9.0217 -2.52979 -3.05774
lfemur -20.3712 2.30257 -19.9954
ltibia 35.927 0 0
lfoot -38.654 3.93715 0
ltoes 38.9541 0 0
rfemur -19.4747 0.22019 19.5256
rtibia 36.0342 0 0
rfoot -30.3779 -10.4967 0
rtoes 21.4483 0 0
lowerback -2.05144 3.66971 -5.03766
upperback -2.66728 5.00355 3.49279
thorax -2.36397 2.67023 6.42441
lowerneck -9.84699 -2.36864 1.94815
upperneck -1.37933 -3.32542 -1.65382
head 1.16433 -1.69823 -0.975663
lclavicle -1.65488e-14 -3.69739e-14 0
lhumerus -41.7253 -10.8128 99.8312
lradius 34.5094 0 0
lwrist 2.17521 0 0
lhand -10.5949 9.65639 0
lfingers 7.12502 0 0
lthumb 15.4107 39.062 0
rclavicle -1.65488e-14 -3.69739e-14 0
rhumerus -43.273 -4.86223 -84.2703
rradius 40.4763 0 0
rwrist 9.89469 0 0
rhand -23.7965 -22.476 0
rfingers 7.12502 0 0
rthumb 2.67393 -52.439 0
2
root 6.2349 16.8387 -28.1346 9.02482 -2.53149 -3.06455
lfemur -20.3355 2.29864 -19.9859
ltibia 35.8731 0 0
lfoot -38.6496 3.94329 0
ltoes 39.0131 0 0
rfemur -19.3821 0.436869 19.5332
rtibia 35.8901 0 0
rfoot -30.3286 -10.6989 0
rtoes 21.5703 0 0
lowerback -2.09999 3.65605 -5.0193
upperback -2.6626 4.98764 3.50052
thorax -2.32321 2.65809 6.42625
lowerneck -9.85033 -2.36139 1.93129
upperneck -1.38627 -3.31508 -1.66081
head 1.16301 -1.69264 -0.974257
lclavicle -9.79405e-15 -3.44579e-14 0
lhumerus -41.735 -10.7751 99.7867
lradius 34.3875 0 0
lwrist 2.12045 0 0
lhand -10.5859 9.56691 0
lfingers 7.12502 0 0
lthumb 15.4194 38.972 0
rclavicle -9.79405e-15 -3.44579e-14 0
rhumerus -43.2471 -4.86984 -84.2784
rradius 40.4893 0 0
rwrist 9.91352 0 0
rhand -23.9332 -22.3526 0
rfingers 7.12502 0 0
rthumb 2.5419 -52.3163 0
3
root 6.22667 16.8415 -28.1314 9.02239 -2.53686 -3.07413
lfemur -20.3081 2.29956 -19.9794
ltibia 35.8402 0 0
lfoot -38.6603 3.94688 0
ltoes 39.0732 0 0
rfemur -19.3219 0.577777 19.5392
rtibia 35.8034 0 0
rfoot -30.3042 -10.8197 0
rtoes 21.7077 0 0
lowerback -2.1218 3.65131 -5.02537
upperback -2.66283 4.98352 3.52029
thorax -2.30765 2.65354 6.45235
lowerneck -9.85427 -2.35934 1.91427
upperneck -1.38494 -3.31132 -1.67801
head 1.1642 -1.69057 -0.976429
lclavicle -4.70474e-15 -3.27165e-14 0
lhumerus -41.7436 -10.7369 99.767
lradius 34.2705 0 0
lwrist 2.06026 0 0
lhand -10.5738 9.52434 0
lfingers 7.12502 0 0
lthumb 15.4311 38.9286 0
rclavicle -4.70474e-15 -3.27165e-14 0
rhumerus -43.24 -4.87504 -84.2617
rradius 40.5054 0 0
rwrist 9.92405 0 0
rhand -24.0256 -22.267 0
rfingers 7.12502 0 0
rthumb 2.45267 -52.2311 0
4
root 6.21843 16.8442 -28.1283 9.01572 -2.54491 -3.08558
lfemur -20.2878 2.30421 -19.9754
ltibia 35.8247 0 0
lfoot -38.6823 3.94839 0
ltoes 39.1325 0 0
rfemur -19.2886 0.655736 19.5438
rtibia 35.7636 0 0
rfoot -30.2998 -10.8738 0
rtoes 21.8528 0 0
lowerback -2.12222 3.65363 -5.05018
upperback -2.66687 4.98866 3.54881
thorax -2.31209 2.65499 6.49648
lowerneck -9.85853 -2.36137 1.89764
upperneck -1.37724 -3.31277 -1.70263
head 1.16732 -1.6913 -0.981311
lclavicle -1.05884e-15 -3.16276e-14 0
lhumerus -41.7513 -10.6994 99.767
lradius 34.1609 0 0
lwrist 1.99768 0 0
lhand -10.5597 9.5194 0
lfingers 7.12502 0 0
lthumb 15.4446 38.9227 0
rclavicle -1.05884e-15 -3.16276e-14 0
rhumerus -43.2476 -4.87821 -84.2263
rradius 40.5234 0 0
rwrist 9.92782 0 0
rhand -24.0809 -22.2133 0
rfingers 7.12502 0 0
rthumb 2.39929 -52.1776 0
